# xmcd
#
# Track frame offsets: 
#        150
#        26162
#        76061
#        103449
#        111936
#        153240
#        192116
#
# Disc length: 3493 seconds
#
# Revision: 18
# Processed by: cddbd v1.5.2PL0 Copyright (c) Steve Scherf et al.
# Submitted via: ExactAudioCopy v1.0b3
#
DISCID=520da307
DTITLE=Friedrich Gulda (piano) - Beethoven‧Piano Sonatas（Complete）（Dis
DTITLE=c 9）
DYEAR=1967
DGENRE=Classical
TTITLE0=Beethoven‧Piano Sonata in E major Op.109：I. Vivace ma non trop
TTITLE0=po–adagio espressivo–prestisstimo
TTITLE1=Beethoven‧Piano Sonata in E major Op.109：II. Andante, molto ca
TTITLE1=ntabile ed espressivo
TTITLE2=Beethoven‧Piano Sonata in A flat major Op.110：I. Moderato cant
TTITLE2=abile, molto espressivo
TTITLE3=Beethoven‧Piano Sonata in A flat major Op.110：II. Allegro molt
TTITLE3=o
TTITLE4=Beethoven‧Piano Sonata in A flat major Op.110：III. Adagio ma n
TTITLE4=on troppo
TTITLE5=Beethoven‧Piano Sonata in C minor Op.111：I. Maestoso–allegro c
TTITLE5=on brio ed appassionato
TTITLE6=Beethoven‧Piano Sonata in C minor Op.111：II. Arietta, adagio m
TTITLE6=olto semplice e cantabile
EXTD=CD 9/12 YEAR: 1967
EXTT0=
EXTT1=
EXTT2=
EXTT3=
EXTT4=
EXTT5=
EXTT6=
PLAYORDER=
